<?xml version="1.0" standalone="no"?>
<!DOCTYPE svg PUBLIC "-//W3C//DTD SVG 20010904//EN"
 "http://www.w3.org/TR/2001/REC-SVG-20010904/DTD/svg10.dtd">
<svg version="1.0" xmlns="http://www.w3.org/2000/svg"
 width="280.000000pt" height="280.000000pt" viewBox="0 0 280.000000 280.000000"
 preserveAspectRatio="xMidYMid meet">
<metadata>
Created by potrace 1.14, written by Peter Selinger 2001-2017
</metadata>
<g transform="translate(0.000000,280.000000) scale(0.100000,-0.100000)"
fill="#000000" stroke="none">
<path d="M778 2348 c-2 -5 -10 -10 -18 -12 -20 -3 -78 -35 -65 -36 6 0 4 -4
-3 -9 -7 -4 -15 -14 -16 -22 -2 -8 -5 -21 -8 -29 -3 -8 -13 -37 -23 -65 -9
-27 -23 -62 -31 -77 -8 -16 -12 -28 -8 -28 3 0 1 -7 -6 -15 -6 -8 -9 -18 -6
-24 3 -5 1 -11 -4 -13 -6 -2 -12 -10 -14 -18 -1 -8 -8 -25 -14 -38 -7 -12 -10
-27 -7 -32 3 -6 1 -10 -4 -10 -6 0 -10 -3 -9 -7 1 -5 -3 -18 -10 -30 -7 -13
-10 -23 -6 -23 3 0 2 -6 -3 -12 -12 -17 -68 -171 -65 -180 1 -5 -2 -8 -6 -8
-5 0 -9 -6 -10 -12 -1 -16 -7 -39 -15 -58 -20 -46 -35 -99 -30 -104 4 -3 1 -6
-5 -6 -7 0 -12 -8 -12 -18 0 -10 -3 -22 -7 -26 -5 -4 -8 -11 -8 -14 -1 -15
-28 -88 -37 -99 -5 -6 -11 -24 -14 -39 -3 -16 -9 -33 -15 -40 -5 -6 -6 -14 -2
-17 3 -4 1 -7 -5 -7 -7 0 -11 -3 -11 -7 1 -5 0 -10 -1 -13 -1 -3 -3 -13 -5
-23 -2 -10 -13 -38 -24 -63 -12 -24 -21 -46 -21 -49 0 -6 -28 -71 -58 -135 -9
-19 -15 -38 -14 -42 1 -5 -2 -8 -6 -8 -4 0 -8 -10 -9 -22 -1 -11 -8 -25 -15
-29 -7 -4 -9 -11 -6 -15 4 -4 3 -16 -3 -26 -8 -14 -8 -23 0 -31 6 -6 11 -19
11 -29 0 -10 5 -18 10 -18 6 0 10 -7 10 -15 0 -8 3 -15 8 -15 4 0 18 -10 32
-23 14 -13 40 -30 58 -38 17 -7 32 -17 32 -21 0 -5 3 -7 7 -7 5 1 11 0 16 -1
4 -1 10 -3 15 -5 4 -1 21 -8 37 -15 32 -14 50 -19 78 -22 9 -1 17 -6 17 -11 0
-4 4 -5 10 -2 5 3 10 2 10 -4 0 -5 9 -8 20 -6 11 2 20 0 20 -4 0 -13 114 -5
118 7 2 7 8 12 13 12 22 0 79 76 79 105 0 8 4 15 8 15 5 0 9 6 10 13 1 22 11
57 19 70 4 6 8 14 8 17 2 15 29 87 36 96 5 6 6 14 2 17 -3 4 -1 7 6 7 7 0 9 5
6 10 -3 6 -2 10 3 10 5 0 10 -34 11 -77 1 -42 3 -79 5 -82 2 -3 7 -31 11 -61
4 -30 11 -57 16 -58 5 -2 7 -7 5 -11 -3 -4 5 -24 17 -46 16 -27 32 -41 55 -47
18 -5 390 -7 827 -6 l794 3 45 49 c25 27 43 52 40 57 -3 5 -1 9 3 9 5 0 16 24
25 53 12 40 16 83 13 177 -3 136 -7 169 -26 215 -7 17 -12 33 -11 37 1 5 -1 8
-6 8 -4 0 -13 13 -20 29 -19 43 -64 67 -130 70 -31 1 -58 4 -61 7 -2 2 3 12
11 21 9 10 21 35 27 57 11 43 8 218 -5 238 -5 7 -14 28 -20 46 -11 29 -8 34
12 31 4 0 10 3 13 8 3 5 23 19 43 32 21 12 38 28 39 34 0 7 3 28 5 47 3 19 5
50 5 68 -1 37 -1 69 0 115 0 60 -7 101 -19 105 -7 2 -10 8 -7 12 3 5 -5 19
-18 32 l-24 24 -620 0 -620 -1 -19 40 c-35 75 -136 154 -217 170 -9 2 -23 7
-30 12 -6 4 -20 9 -29 10 -35 5 -43 8 -48 15 -9 11 -129 16 -132 6z m291 -957
c1 -48 4 -100 7 -116 3 -15 6 -33 7 -39 2 -13 -41 -17 -94 -10 -41 6 -41 -3 0
114 9 25 15 48 13 53 -1 4 3 7 8 7 6 0 10 6 10 14 0 8 5 27 12 43 6 15 10 32
9 37 -1 5 4 4 12 -3 10 -8 15 -37 16 -100z"/>
</g>
</svg>
